<svg xmlns="http://www.w3.org/2000/svg" viewBox="0 0 512 512" role="img" aria-labelledby="title">
  <title>Devtools icon</title>
  <path
    fill="#2563eb"
    fill-rule="evenodd"
    d="M112 96h288c35.3 0 64 28.7 64 64v192c0 35.3-28.7 64-64 64H112c-35.3 0-64-28.7-64-64V160c0-35.3 28.7-64 64-64Zm0 48c-8.8 0-16 7.2-16 16v192c0 8.8 7.2 16 16 16h288c8.8 0 16-7.2 16-16V160c0-8.8-7.2-16-16-16H112Zm76 84.7c9.4-9.4 24.6-9.4 33.9 0l48 48c9.4 9.4 9.4 24.6 0 33.9l-48 48c-9.4 9.4-24.6 9.4-33.9 0s-9.4-24.6 0-33.9l31-31-31-31c-9.4-9.4-9.4-24.6 0-34Zm100 93.3c0-13.3 10.7-24 24-24h64c13.3 0 24 10.7 24 24s-10.7 24-24 24h-64c-13.3 0-24-10.7-24-24Z"
    clip-rule="evenodd"
  />
</svg>
